<?xml version="1.0" encoding="UTF-8"?>
<svg xmlns="http://www.w3.org/2000/svg" viewBox="0 0 1240 320" width="1240" height="320" role="img" aria-label="Every day of activity since the account opened, drawn as a chart recorder trace: 490 contributions over 51 active days out of 438, peaking at 47">
<title>Commit Activity</title>
<defs><pattern id="ag" width="26" height="26" patternUnits="userSpaceOnUse"><circle cx="1.5" cy="1.5" r="1" fill="#E6DBCA"/></pattern><clipPath id="strip"><rect x="60" y="96" width="1120" height="180" rx="4"/></clipPath><mask id="reveal" maskUnits="userSpaceOnUse" x="0" y="0" width="1240" height="320"><rect class="rv" x="72.0" y="90" width="1096.0" height="200" fill="#fff"/></mask><style>
@keyframes blip{0%,100%{opacity:1}50%{opacity:.25}}
.blip{animation:blip 1.6s steps(1,end) infinite}
@keyframes fade{0%{opacity:0}}
@keyframes rev{0%,3%{transform:scaleX(0)}74%,100%{transform:scaleX(1)}}
.rv{transform-box:fill-box;transform-origin:left center;animation:rev 26.0s linear infinite}
@keyframes pen{0%{transform:translate(72.0px,186.0px)}3.000%{transform:translate(72.0px,186.0px)}3.081%{transform:translate(73.3px,178.7px)}3.162%{transform:translate(74.5px,186.0px)}52.603%{transform:translate(837.7px,186.0px)}52.684%{transform:translate(838.9px,205.3px)}52.765%{transform:translate(840.2px,186.0px)}54.548%{transform:translate(867.7px,186.0px)}54.629%{transform:translate(869.0px,171.8px)}54.710%{transform:translate(870.2px,186.0px)}54.872%{transform:translate(872.7px,186.0px)}54.953%{transform:translate(874.0px,193.3px)}55.034%{transform:translate(875.2px,186.0px)}55.196%{transform:translate(877.7px,186.0px)}55.277%{transform:translate(879.0px,162.4px)}55.358%{transform:translate(880.2px,186.0px)}55.683%{transform:translate(885.2px,186.0px)}55.764%{transform:translate(886.5px,218.6px)}55.845%{transform:translate(887.7px,186.0px)}55.926%{transform:translate(889.0px,114.9px)}56.007%{transform:translate(890.2px,186.0px)}56.088%{transform:translate(891.5px,220.2px)}56.169%{transform:translate(892.7px,186.0px)}56.250%{transform:translate(894.0px,171.8px)}56.331%{transform:translate(895.3px,186.0px)}56.412%{transform:translate(896.5px,200.2px)}56.493%{transform:translate(897.8px,186.0px)}56.574%{transform:translate(899.0px,171.8px)}56.655%{transform:translate(900.3px,186.0px)}56.817%{transform:translate(902.8px,186.0px)}56.898%{transform:translate(904.0px,197.1px)}56.979%{transform:translate(905.3px,186.0px)}57.466%{transform:translate(912.8px,186.0px)}57.547%{transform:translate(914.0px,164.5px)}57.628%{transform:translate(915.3px,186.0px)}57.709%{transform:translate(916.5px,193.3px)}57.790%{transform:translate(917.8px,186.0px)}57.952%{transform:translate(920.3px,186.0px)}58.033%{transform:translate(921.5px,174.9px)}58.114%{transform:translate(922.8px,186.0px)}59.897%{transform:translate(950.3px,186.0px)}59.978%{transform:translate(951.6px,202.9px)}60.059%{transform:translate(952.8px,186.0px)}60.140%{transform:translate(954.1px,178.7px)}60.221%{transform:translate(955.3px,186.0px)}60.303%{transform:translate(956.6px,200.2px)}60.384%{transform:translate(957.8px,186.0px)}60.870%{transform:translate(965.3px,186.0px)}60.951%{transform:translate(966.6px,171.8px)}61.032%{transform:translate(967.8px,186.0px)}61.194%{transform:translate(970.3px,186.0px)}61.275%{transform:translate(971.6px,200.2px)}61.356%{transform:translate(972.8px,186.0px)}61.437%{transform:translate(974.1px,178.7px)}61.518%{transform:translate(975.3px,186.0px)}61.599%{transform:translate(976.6px,200.2px)}61.680%{transform:translate(977.8px,186.0px)}61.761%{transform:translate(979.1px,171.8px)}61.842%{transform:translate(980.3px,186.0px)}62.491%{transform:translate(990.3px,186.0px)}62.572%{transform:translate(991.6px,207.5px)}62.653%{transform:translate(992.8px,186.0px)}64.922%{transform:translate(1027.9px,186.0px)}65.003%{transform:translate(1029.1px,171.8px)}65.084%{transform:translate(1030.4px,186.0px)}65.166%{transform:translate(1031.6px,200.2px)}65.247%{transform:translate(1032.9px,186.0px)}65.328%{transform:translate(1034.1px,171.8px)}65.409%{transform:translate(1035.4px,186.0px)}65.490%{transform:translate(1036.6px,200.2px)}65.571%{transform:translate(1037.9px,186.0px)}66.381%{transform:translate(1050.4px,186.0px)}66.462%{transform:translate(1051.6px,174.9px)}66.543%{transform:translate(1052.9px,186.0px)}66.624%{transform:translate(1054.1px,200.2px)}66.705%{transform:translate(1055.4px,186.0px)}67.030%{transform:translate(1060.4px,186.0px)}67.111%{transform:translate(1061.7px,178.7px)}67.192%{transform:translate(1062.9px,186.0px)}67.273%{transform:translate(1064.2px,226.2px)}67.354%{transform:translate(1065.4px,186.0px)}67.435%{transform:translate(1066.7px,164.5px)}67.516%{transform:translate(1067.9px,186.0px)}67.597%{transform:translate(1069.2px,236.7px)}67.678%{transform:translate(1070.4px,186.0px)}67.759%{transform:translate(1071.7px,134.1px)}67.840%{transform:translate(1072.9px,186.0px)}67.921%{transform:translate(1074.2px,202.9px)}68.002%{transform:translate(1075.4px,186.0px)}68.083%{transform:translate(1076.7px,137.8px)}68.164%{transform:translate(1077.9px,186.0px)}68.326%{transform:translate(1080.4px,186.0px)}68.408%{transform:translate(1081.7px,239.1px)}68.489%{transform:translate(1082.9px,186.0px)}70.596%{transform:translate(1115.5px,186.0px)}70.677%{transform:translate(1116.7px,143.0px)}70.758%{transform:translate(1118.0px,186.0px)}70.839%{transform:translate(1119.2px,240.2px)}70.920%{transform:translate(1120.5px,186.0px)}71.001%{transform:translate(1121.7px,158.6px)}71.082%{transform:translate(1123.0px,186.0px)}71.244%{transform:translate(1125.5px,186.0px)}71.325%{transform:translate(1126.7px,211.6px)}71.406%{transform:translate(1128.0px,186.0px)}71.487%{transform:translate(1129.2px,137.8px)}71.568%{transform:translate(1130.5px,186.0px)}71.650%{transform:translate(1131.7px,202.9px)}71.731%{transform:translate(1133.0px,186.0px)}71.812%{transform:translate(1134.2px,112.0px)}71.893%{transform:translate(1135.5px,186.0px)}71.974%{transform:translate(1136.7px,253.2px)}72.055%{transform:translate(1138.0px,186.0px)}72.136%{transform:translate(1139.2px,164.5px)}72.217%{transform:translate(1140.5px,186.0px)}72.703%{transform:translate(1148.0px,186.0px)}72.784%{transform:translate(1149.2px,207.5px)}72.865%{transform:translate(1150.5px,186.0px)}72.946%{transform:translate(1151.7px,160.4px)}73.027%{transform:translate(1153.0px,186.0px)}73.108%{transform:translate(1154.2px,217.0px)}73.189%{transform:translate(1155.5px,186.0px)}73.514%{transform:translate(1160.5px,186.0px)}73.595%{transform:translate(1161.7px,174.9px)}73.676%{transform:translate(1163.0px,186.0px)}74.000%{transform:translate(1168.0px,186.0px)}100%{transform:translate(1168.0px,186.0px)}}
.pen{animation:pen 26.0s linear infinite}
.pk{animation:fade .6s ease-out both;animation-delay:18.6s}
</style></defs>
<rect width="1240" height="320" fill="#F2EDE6"/>
<rect width="1240" height="320" fill="url(#ag)"/>
<text x="48.0" y="44.0" font-family="ui-monospace,SFMono-Regular,Menlo,Consolas,monospace" font-size="14" font-weight="800" fill="#2E2A24" text-anchor="start" letter-spacing="3.4">COMMIT ACTIVITY</text>
<text x="1174.0" y="44.0" font-family="ui-monospace,SFMono-Regular,Menlo,Consolas,monospace" font-size="12.5" font-weight="600" fill="#A2988A" text-anchor="end" letter-spacing="2.2">LIVE · REBUILT DAILY</text>
<circle cx="1192" cy="40" r="5" fill="#AAC832" class="blip"/>
<path d="M48,58 H1192" stroke="#D9D0C1" stroke-width="1.4" fill="none"/>
<text x="48.0" y="78.0" font-family="ui-monospace,SFMono-Regular,Menlo,Consolas,monospace" font-size="10.5" font-weight="600" fill="#7D7266" text-anchor="start" letter-spacing="1.5">EVERY DAY SINCE 24 JUN 25 · A FLAT LINE IS A DAY WITH NOTHING ON IT</text>
<rect x="60" y="96" width="1120" height="180" rx="4" fill="#FBF7F0" stroke="#D9D0C1" stroke-width="1.3"/>
<path d="M60,126 H1180" stroke="#E7DCCA" stroke-width="1"/>
<path d="M60,156 H1180" stroke="#E7DCCA" stroke-width="1"/>
<path d="M60,186 H1180" stroke="#E7DCCA" stroke-width="1"/>
<path d="M60,216 H1180" stroke="#E7DCCA" stroke-width="1"/>
<path d="M60,246 H1180" stroke="#E7DCCA" stroke-width="1"/>
<path d="M89.5,100 V272" stroke="#E7DCCA" stroke-width="0.8"/>
<path d="M167.1,100 V272" stroke="#E7DCCA" stroke-width="0.8"/>
<path d="M244.7,100 V272" stroke="#E7DCCA" stroke-width="0.8"/>
<path d="M319.7,100 V272" stroke="#E7DCCA" stroke-width="0.8"/>
<path d="M397.3,100 V272" stroke="#E7DCCA" stroke-width="0.8"/>
<path d="M472.4,100 V272" stroke="#E7DCCA" stroke-width="0.8"/>
<path d="M549.9,100 V272" stroke="#E7DCCA" stroke-width="1.4"/>
<path d="M627.5,100 V272" stroke="#E7DCCA" stroke-width="0.8"/>
<path d="M697.6,100 V272" stroke="#E7DCCA" stroke-width="0.8"/>
<path d="M775.1,100 V272" stroke="#E7DCCA" stroke-width="0.8"/>
<path d="M850.2,100 V272" stroke="#E7DCCA" stroke-width="0.8"/>
<path d="M927.8,100 V272" stroke="#E7DCCA" stroke-width="0.8"/>
<path d="M1002.8,100 V272" stroke="#E7DCCA" stroke-width="0.8"/>
<path d="M1080.4,100 V272" stroke="#E7DCCA" stroke-width="0.8"/>
<path d="M1158.0,100 V272" stroke="#E7DCCA" stroke-width="0.8"/>
<path d="M60,186 H1180" stroke="#B9B0A0" stroke-width="1.2" stroke-dasharray="3 4"/>
<path d="M68,100h0.1M86,100h0.1M104,100h0.1M122,100h0.1M140,100h0.1M158,100h0.1M176,100h0.1M194,100h0.1M212,100h0.1M230,100h0.1M248,100h0.1M266,100h0.1M284,100h0.1M302,100h0.1M320,100h0.1M338,100h0.1M356,100h0.1M374,100h0.1M392,100h0.1M410,100h0.1M428,100h0.1M446,100h0.1M464,100h0.1M482,100h0.1M500,100h0.1M518,100h0.1M536,100h0.1M554,100h0.1M572,100h0.1M590,100h0.1M608,100h0.1M626,100h0.1M644,100h0.1M662,100h0.1M680,100h0.1M698,100h0.1M716,100h0.1M734,100h0.1M752,100h0.1M770,100h0.1M788,100h0.1M806,100h0.1M824,100h0.1M842,100h0.1M860,100h0.1M878,100h0.1M896,100h0.1M914,100h0.1M932,100h0.1M950,100h0.1M968,100h0.1M986,100h0.1M1004,100h0.1M1022,100h0.1M1040,100h0.1M1058,100h0.1M1076,100h0.1M1094,100h0.1M1112,100h0.1M1130,100h0.1M1148,100h0.1M1166,100h0.1" stroke="#C6BCAC" stroke-width="3.4" stroke-linecap="round" fill="none"/>
<path d="M68,268h0.1M86,268h0.1M104,268h0.1M122,268h0.1M140,268h0.1M158,268h0.1M176,268h0.1M194,268h0.1M212,268h0.1M230,268h0.1M248,268h0.1M266,268h0.1M284,268h0.1M302,268h0.1M320,268h0.1M338,268h0.1M356,268h0.1M374,268h0.1M392,268h0.1M410,268h0.1M428,268h0.1M446,268h0.1M464,268h0.1M482,268h0.1M500,268h0.1M518,268h0.1M536,268h0.1M554,268h0.1M572,268h0.1M590,268h0.1M608,268h0.1M626,268h0.1M644,268h0.1M662,268h0.1M680,268h0.1M698,268h0.1M716,268h0.1M734,268h0.1M752,268h0.1M770,268h0.1M788,268h0.1M806,268h0.1M824,268h0.1M842,268h0.1M860,268h0.1M878,268h0.1M896,268h0.1M914,268h0.1M932,268h0.1M950,268h0.1M968,268h0.1M986,268h0.1M1004,268h0.1M1022,268h0.1M1040,268h0.1M1058,268h0.1M1076,268h0.1M1094,268h0.1M1112,268h0.1M1130,268h0.1M1148,268h0.1M1166,268h0.1" stroke="#C6BCAC" stroke-width="3.4" stroke-linecap="round" fill="none"/>
<g clip-path="url(#strip)" mask="url(#reveal)"><path d="M72.0,186.0 L73.3,178.7 L74.5,186.0 L837.7,186.0 L838.9,205.3 L840.2,186.0 L867.7,186.0 L869.0,171.8 L870.2,186.0 L872.7,186.0 L874.0,193.3 L875.2,186.0 L877.7,186.0 L879.0,162.4 L880.2,186.0 L885.2,186.0 L886.5,218.6 L887.7,186.0 L887.7,186.0 L889.0,114.9 L890.2,186.0 L891.5,220.2 L892.7,186.0 L894.0,171.8 L895.3,186.0 L896.5,200.2 L897.8,186.0 L897.8,186.0 L899.0,171.8 L900.3,186.0 L902.8,186.0 L904.0,197.1 L905.3,186.0 L912.8,186.0 L914.0,164.5 L915.3,186.0 L915.3,186.0 L916.5,193.3 L917.8,186.0 L920.3,186.0 L921.5,174.9 L922.8,186.0 L950.3,186.0 L951.6,202.9 L952.8,186.0 L954.1,178.7 L955.3,186.0 L956.6,200.2 L957.8,186.0 L965.3,186.0 L966.6,171.8 L967.8,186.0 L970.3,186.0 L971.6,200.2 L972.8,186.0 L974.1,178.7 L975.3,186.0 L975.3,186.0 L976.6,200.2 L977.8,186.0 L979.1,171.8 L980.3,186.0 L990.3,186.0 L991.6,207.5 L992.8,186.0 L1027.9,186.0 L1029.1,171.8 L1030.4,186.0 L1031.6,200.2 L1032.9,186.0 L1034.1,171.8 L1035.4,186.0 L1036.6,200.2 L1037.9,186.0 L1050.4,186.0 L1051.6,174.9 L1052.9,186.0 L1054.1,200.2 L1055.4,186.0 L1060.4,186.0 L1061.7,178.7 L1062.9,186.0 L1064.2,226.2 L1065.4,186.0 L1066.7,164.5 L1067.9,186.0 L1069.2,236.7 L1070.4,186.0 L1071.7,134.1 L1072.9,186.0 L1074.2,202.9 L1075.4,186.0 L1076.7,137.8 L1077.9,186.0 L1080.4,186.0 L1081.7,239.1 L1082.9,186.0 L1115.5,186.0 L1116.7,143.0 L1118.0,186.0 L1119.2,240.2 L1120.5,186.0 L1121.7,158.6 L1123.0,186.0 L1125.5,186.0 L1126.7,211.6 L1128.0,186.0 L1129.2,137.8 L1130.5,186.0 L1131.7,202.9 L1133.0,186.0 L1134.2,112.0 L1135.5,186.0 L1136.7,253.2 L1138.0,186.0 L1139.2,164.5 L1140.5,186.0 L1148.0,186.0 L1149.2,207.5 L1150.5,186.0 L1151.7,160.4 L1153.0,186.0 L1154.2,217.0 L1155.5,186.0 L1160.5,186.0 L1161.7,174.9 L1163.0,186.0 L1168.0,186.0" fill="none" stroke="#D41F26" stroke-width="1.9" stroke-linejoin="round" stroke-linecap="round"/></g>
<g class="pen">
  <path d="M0,0 L-7,-30 L7,-30 Z" fill="#B9AC97"/>
  <rect x="-16" y="-58" width="32" height="30" rx="5" fill="#2E2A24" stroke="#2E2A24" stroke-width="1.6"/>
  <rect x="-9" y="-50" width="18" height="6" rx="3" fill="#D41F26"/>
  <circle cx="0" cy="0" r="3.4" fill="#D41F26"/>
</g>
<g class="pk">
  <text x="1128.4" y="90.0" font-family="ui-monospace,SFMono-Regular,Menlo,Consolas,monospace" font-size="9.5" font-weight="800" fill="#D41F26" text-anchor="middle" letter-spacing="1.2">47 ON 22 AUG</text>
</g>
<text x="89.5" y="292.0" font-family="ui-monospace,SFMono-Regular,Menlo,Consolas,monospace" font-size="9" font-weight="600" fill="#A2988A" text-anchor="middle" letter-spacing="1.1">JUL</text>
<text x="167.1" y="292.0" font-family="ui-monospace,SFMono-Regular,Menlo,Consolas,monospace" font-size="9" font-weight="600" fill="#A2988A" text-anchor="middle" letter-spacing="1.1">AUG</text>
<text x="244.7" y="292.0" font-family="ui-monospace,SFMono-Regular,Menlo,Consolas,monospace" font-size="9" font-weight="600" fill="#A2988A" text-anchor="middle" letter-spacing="1.1">SEP</text>
<text x="319.7" y="292.0" font-family="ui-monospace,SFMono-Regular,Menlo,Consolas,monospace" font-size="9" font-weight="600" fill="#A2988A" text-anchor="middle" letter-spacing="1.1">OCT</text>
<text x="397.3" y="292.0" font-family="ui-monospace,SFMono-Regular,Menlo,Consolas,monospace" font-size="9" font-weight="600" fill="#A2988A" text-anchor="middle" letter-spacing="1.1">NOV</text>
<text x="472.4" y="292.0" font-family="ui-monospace,SFMono-Regular,Menlo,Consolas,monospace" font-size="9" font-weight="600" fill="#A2988A" text-anchor="middle" letter-spacing="1.1">DEC</text>
<text x="549.9" y="292.0" font-family="ui-monospace,SFMono-Regular,Menlo,Consolas,monospace" font-size="9" font-weight="600" fill="#A2988A" text-anchor="middle" letter-spacing="1.1">JAN 26</text>
<text x="627.5" y="292.0" font-family="ui-monospace,SFMono-Regular,Menlo,Consolas,monospace" font-size="9" font-weight="600" fill="#A2988A" text-anchor="middle" letter-spacing="1.1">FEB</text>
<text x="697.6" y="292.0" font-family="ui-monospace,SFMono-Regular,Menlo,Consolas,monospace" font-size="9" font-weight="600" fill="#A2988A" text-anchor="middle" letter-spacing="1.1">MAR</text>
<text x="775.1" y="292.0" font-family="ui-monospace,SFMono-Regular,Menlo,Consolas,monospace" font-size="9" font-weight="600" fill="#A2988A" text-anchor="middle" letter-spacing="1.1">APR</text>
<text x="850.2" y="292.0" font-family="ui-monospace,SFMono-Regular,Menlo,Consolas,monospace" font-size="9" font-weight="600" fill="#A2988A" text-anchor="middle" letter-spacing="1.1">MAY</text>
<text x="927.8" y="292.0" font-family="ui-monospace,SFMono-Regular,Menlo,Consolas,monospace" font-size="9" font-weight="600" fill="#A2988A" text-anchor="middle" letter-spacing="1.1">JUN</text>
<text x="1002.8" y="292.0" font-family="ui-monospace,SFMono-Regular,Menlo,Consolas,monospace" font-size="9" font-weight="600" fill="#A2988A" text-anchor="middle" letter-spacing="1.1">JUL</text>
<text x="1080.4" y="292.0" font-family="ui-monospace,SFMono-Regular,Menlo,Consolas,monospace" font-size="9" font-weight="600" fill="#A2988A" text-anchor="middle" letter-spacing="1.1">AUG</text>
<text x="1168.0" y="292.0" font-family="ui-monospace,SFMono-Regular,Menlo,Consolas,monospace" font-size="9" font-weight="800" fill="#D41F26" text-anchor="end" letter-spacing="1.1">TODAY</text>
<text x="48.0" y="308.0" font-family="ui-monospace,SFMono-Regular,Menlo,Consolas,monospace" font-size="9" font-weight="700" fill="#A2988A" text-anchor="start" letter-spacing="1.6">CONTRIBUTIONS</text>
<text x="160.0" y="308.0" font-family="ui-monospace,SFMono-Regular,Menlo,Consolas,monospace" font-size="11" font-weight="800" fill="#2E2A24" text-anchor="start" letter-spacing="0.6">490</text>
<text x="263.0" y="308.0" font-family="ui-monospace,SFMono-Regular,Menlo,Consolas,monospace" font-size="9" font-weight="700" fill="#A2988A" text-anchor="start" letter-spacing="1.6">ACTIVE DAYS</text>
<text x="375.0" y="308.0" font-family="ui-monospace,SFMono-Regular,Menlo,Consolas,monospace" font-size="11" font-weight="800" fill="#2E2A24" text-anchor="start" letter-spacing="0.6">51 / 438</text>
<text x="478.0" y="308.0" font-family="ui-monospace,SFMono-Regular,Menlo,Consolas,monospace" font-size="9" font-weight="700" fill="#A2988A" text-anchor="start" letter-spacing="1.6">BUSIEST DAY</text>
<text x="590.0" y="308.0" font-family="ui-monospace,SFMono-Regular,Menlo,Consolas,monospace" font-size="11" font-weight="800" fill="#2E2A24" text-anchor="start" letter-spacing="0.6">47</text>
<text x="693.0" y="308.0" font-family="ui-monospace,SFMono-Regular,Menlo,Consolas,monospace" font-size="9" font-weight="700" fill="#A2988A" text-anchor="start" letter-spacing="1.6">SPAN</text>
<text x="805.0" y="308.0" font-family="ui-monospace,SFMono-Regular,Menlo,Consolas,monospace" font-size="11" font-weight="800" fill="#2E2A24" text-anchor="start" letter-spacing="0.6">24 JUN 25 – 4 SEP 26</text>
</svg>