<svg xmlns="http://www.w3.org/2000/svg" viewBox="0 0 1340 450" width="1340" height="450" role="img" aria-label="Robotic line building a website from frontend, backend and database, then deploying it to a live server">
<title>Ship It</title>
<defs>
<clipPath id="bc"><rect x="300" y="306" width="740" height="11" rx="3"/></clipPath>
<style>
.beltmove{animation:beltmove 1.1s linear infinite}
@keyframes beltmove{from{transform:translateX(0)}to{transform:translateX(26px)}}
.press{animation:press 2s ease-in-out infinite}
@keyframes press{0%,100%{transform:translateY(0)}50%{transform:translateY(16px)}}
.lamp{animation:lamp 1.6s steps(1,end) infinite}
@keyframes lamp{0%,49%{opacity:1}50%,100%{opacity:.25}}
.lamp2{animation:lamp 1.6s steps(1,end) infinite;animation-delay:-.8s}
.sig{transform-origin:0 0;animation:sig 2.6s ease-out infinite}
@keyframes sig{0%{transform:scale(.35);opacity:.75}100%{transform:scale(1.5);opacity:0}}
.roll{transform-origin:0 0;animation:roll .9s linear infinite}
@keyframes roll{to{transform:rotate(360deg)}}
.whl{transform-origin:0 0;animation:whl 24s ease-in-out infinite}
@keyframes whl{0%,4%{transform:rotate(0deg)}15%,68%{transform:rotate(900deg)}78%,100%{transform:rotate(1800deg)}}
.tin{animation:tin 24s ease-in-out infinite}
@keyframes tin{0%,4%{transform:translate(-330px,376px)}15%,68%{transform:translate(20px,376px)}78%,100%{transform:translate(-330px,376px)}}
.dp0{animation:dp 1.8s ease-in infinite;animation-delay:-0.00s}
.dp1{animation:dp 1.8s ease-in infinite;animation-delay:-0.30s}
.dp2{animation:dp 1.8s ease-in infinite;animation-delay:-0.60s}
.dp3{animation:dp 1.8s ease-in infinite;animation-delay:-0.90s}
.dp4{animation:dp 1.8s ease-in infinite;animation-delay:-1.20s}
.dp5{animation:dp 1.8s ease-in infinite;animation-delay:-1.50s}
@keyframes dp{0%{transform:translateY(0);opacity:0}20%{opacity:1}80%{opacity:1}100%{transform:translateY(30px);opacity:0}}
.cr0{animation:cr0 24s steps(1,end) infinite}
@keyframes cr0{0%,17.23%{opacity:1}17.83%,77%{opacity:0}78%,100%{opacity:1}}
.cr1{animation:cr1 24s steps(1,end) infinite}
@keyframes cr1{0%,33.90%{opacity:1}34.50%,77%{opacity:0}78%,100%{opacity:1}}
.cr2{animation:cr2 24s steps(1,end) infinite}
@keyframes cr2{0%,50.57%{opacity:1}51.17%,77%{opacity:0}78%,100%{opacity:1}}
.au1{transform-origin:0 0;animation:au1 24s ease-in-out infinite}
.ap1{transform-origin:0 0;animation:ap1 24s ease-in-out infinite}
.aw1{animation:aw1 24s linear infinite}
.ac1{transform-origin:0 0;animation:ac1 24s ease-in-out infinite}
@keyframes au1{0%,16.00%{transform:rotate(45deg)}19.33%{transform:rotate(45deg)}24.33%{transform:rotate(-45deg)}27.33%{transform:rotate(-45deg)}32.67%{transform:rotate(45deg)}36.00%{transform:rotate(45deg)}41.00%{transform:rotate(-45deg)}44.00%{transform:rotate(-45deg)}49.33%{transform:rotate(45deg)}52.67%{transform:rotate(45deg)}57.67%{transform:rotate(-45deg)}60.67%{transform:rotate(-45deg)}66.00%{transform:rotate(45deg)}100%{transform:rotate(45deg)}}
@keyframes ap1{0%,16.00%{transform:rotate(-45deg)}19.33%{transform:rotate(-45deg)}24.33%{transform:rotate(45deg)}27.33%{transform:rotate(45deg)}32.67%{transform:rotate(-45deg)}36.00%{transform:rotate(-45deg)}41.00%{transform:rotate(45deg)}44.00%{transform:rotate(45deg)}49.33%{transform:rotate(-45deg)}52.67%{transform:rotate(-45deg)}57.67%{transform:rotate(45deg)}60.67%{transform:rotate(45deg)}66.00%{transform:rotate(-45deg)}100%{transform:rotate(-45deg)}}
@keyframes aw1{0%,17.33%{opacity:0}17.33%{opacity:0}17.83%{opacity:1}25.50%{opacity:1}26.00%{opacity:0}34.00%{opacity:0}34.50%{opacity:1}42.17%{opacity:1}42.67%{opacity:0}50.67%{opacity:0}51.17%{opacity:1}58.83%{opacity:1}59.33%{opacity:0}100%{opacity:0}}
@keyframes ac1{0%,17.00%{transform:scaleX(1.35)}17.17%{transform:scaleX(1.35)}18.00%{transform:scaleX(1)}25.67%{transform:scaleX(1)}26.33%{transform:scaleX(1.35)}33.83%{transform:scaleX(1.35)}34.67%{transform:scaleX(1)}42.33%{transform:scaleX(1)}43.00%{transform:scaleX(1.35)}50.50%{transform:scaleX(1.35)}51.33%{transform:scaleX(1)}59.00%{transform:scaleX(1)}59.67%{transform:scaleX(1.35)}100%{transform:scaleX(1.35)}}
.au2{transform-origin:0 0;animation:au2 24s ease-in-out infinite}
.ap2{transform-origin:0 0;animation:ap2 24s ease-in-out infinite}
.aw2{animation:aw2 24s linear infinite}
.ac2{transform-origin:0 0;animation:ac2 24s ease-in-out infinite}
@keyframes au2{0%,39.50%{transform:rotate(45deg)}42.83%{transform:rotate(45deg)}47.83%{transform:rotate(-45deg)}50.83%{transform:rotate(-45deg)}56.17%{transform:rotate(45deg)}59.50%{transform:rotate(45deg)}64.50%{transform:rotate(-45deg)}67.50%{transform:rotate(-45deg)}72.83%{transform:rotate(45deg)}76.17%{transform:rotate(45deg)}81.17%{transform:rotate(-45deg)}84.17%{transform:rotate(-45deg)}89.50%{transform:rotate(45deg)}100%{transform:rotate(45deg)}}
@keyframes ap2{0%,39.50%{transform:rotate(-45deg)}42.83%{transform:rotate(-45deg)}47.83%{transform:rotate(45deg)}50.83%{transform:rotate(45deg)}56.17%{transform:rotate(-45deg)}59.50%{transform:rotate(-45deg)}64.50%{transform:rotate(45deg)}67.50%{transform:rotate(45deg)}72.83%{transform:rotate(-45deg)}76.17%{transform:rotate(-45deg)}81.17%{transform:rotate(45deg)}84.17%{transform:rotate(45deg)}89.50%{transform:rotate(-45deg)}100%{transform:rotate(-45deg)}}
@keyframes aw2{0%,40.83%{opacity:0}40.83%{opacity:0}41.33%{opacity:1}49.00%{opacity:1}49.50%{opacity:0}57.50%{opacity:0}58.00%{opacity:1}65.67%{opacity:1}66.17%{opacity:0}74.17%{opacity:0}74.67%{opacity:1}82.33%{opacity:1}82.83%{opacity:0}100%{opacity:0}}
@keyframes ac2{0%,40.50%{transform:scaleX(1.35)}40.67%{transform:scaleX(1.35)}41.50%{transform:scaleX(1)}49.17%{transform:scaleX(1)}49.83%{transform:scaleX(1.35)}57.33%{transform:scaleX(1.35)}58.17%{transform:scaleX(1)}65.83%{transform:scaleX(1)}66.50%{transform:scaleX(1.35)}74.00%{transform:scaleX(1.35)}74.83%{transform:scaleX(1)}82.50%{transform:scaleX(1)}83.17%{transform:scaleX(1.35)}100%{transform:scaleX(1.35)}}
.it0{animation:it0 24s linear infinite}
@keyframes it0{0%{transform:translate(349px,288px);opacity:0}26.00%{transform:translate(349px,288px);opacity:0}26.25%{transform:translate(349px,288px);opacity:1}29.00%{transform:translate(440px,288px);opacity:1}29.30%{transform:translate(440px,288px);opacity:0}42.67%{transform:translate(349px,288px);opacity:0}42.92%{transform:translate(349px,288px);opacity:1}45.67%{transform:translate(440px,288px);opacity:1}45.97%{transform:translate(440px,288px);opacity:0}59.33%{transform:translate(349px,288px);opacity:0}59.58%{transform:translate(349px,288px);opacity:1}62.33%{transform:translate(440px,288px);opacity:1}62.63%{transform:translate(440px,288px);opacity:0}100%{transform:translate(349px,288px);opacity:0}}
.it1{animation:it1 24s linear infinite}
@keyframes it1{0%{transform:translate(496px,288px);opacity:0}29.60%{transform:translate(496px,288px);opacity:0}29.85%{transform:translate(496px,288px);opacity:1}33.00%{transform:translate(595px,288px);opacity:1}33.30%{transform:translate(595px,288px);opacity:0}46.27%{transform:translate(496px,288px);opacity:0}46.52%{transform:translate(496px,288px);opacity:1}49.67%{transform:translate(595px,288px);opacity:1}49.97%{transform:translate(595px,288px);opacity:0}62.93%{transform:translate(496px,288px);opacity:0}63.18%{transform:translate(496px,288px);opacity:1}66.33%{transform:translate(595px,288px);opacity:1}66.63%{transform:translate(595px,288px);opacity:0}100%{transform:translate(496px,288px);opacity:0}}
.it2{animation:it2 24s linear infinite}
@keyframes it2{0%{transform:translate(651px,288px);opacity:0}33.40%{transform:translate(651px,288px);opacity:0}33.65%{transform:translate(651px,288px);opacity:1}36.80%{transform:translate(750px,288px);opacity:1}37.10%{transform:translate(750px,288px);opacity:0}50.07%{transform:translate(651px,288px);opacity:0}50.32%{transform:translate(651px,288px);opacity:1}53.47%{transform:translate(750px,288px);opacity:1}53.77%{transform:translate(750px,288px);opacity:0}66.73%{transform:translate(651px,288px);opacity:0}66.98%{transform:translate(651px,288px);opacity:1}70.13%{transform:translate(750px,288px);opacity:1}70.43%{transform:translate(750px,288px);opacity:0}100%{transform:translate(651px,288px);opacity:0}}
.it3{animation:it3 24s linear infinite}
@keyframes it3{0%{transform:translate(806px,288px);opacity:0}37.20%{transform:translate(806px,288px);opacity:0}37.45%{transform:translate(806px,288px);opacity:1}39.80%{transform:translate(880px,288px);opacity:1}40.10%{transform:translate(880px,288px);opacity:0}53.87%{transform:translate(806px,288px);opacity:0}54.12%{transform:translate(806px,288px);opacity:1}56.47%{transform:translate(880px,288px);opacity:1}56.77%{transform:translate(880px,288px);opacity:0}70.53%{transform:translate(806px,288px);opacity:0}70.78%{transform:translate(806px,288px);opacity:1}73.13%{transform:translate(880px,288px);opacity:1}73.43%{transform:translate(880px,288px);opacity:0}100%{transform:translate(806px,288px);opacity:0}}
.it4{animation:it4 24s linear infinite}
@keyframes it4{0%{transform:translate(961px,288px);opacity:0}40.20%{transform:translate(961px,288px);opacity:0}40.45%{transform:translate(961px,288px);opacity:1}42.50%{transform:translate(1015px,288px);opacity:1}43.90%{transform:translate(1015px,288px);opacity:1}44.20%{transform:translate(1015px,288px);opacity:0}56.87%{transform:translate(961px,288px);opacity:0}57.12%{transform:translate(961px,288px);opacity:1}59.17%{transform:translate(1015px,288px);opacity:1}60.57%{transform:translate(1015px,288px);opacity:1}60.87%{transform:translate(1015px,288px);opacity:0}73.53%{transform:translate(961px,288px);opacity:0}73.78%{transform:translate(961px,288px);opacity:1}75.83%{transform:translate(1015px,288px);opacity:1}77.23%{transform:translate(1015px,288px);opacity:1}77.53%{transform:translate(1015px,288px);opacity:0}100%{transform:translate(961px,288px);opacity:0}}
@keyframes pbfill{0%{transform:scaleX(0)}72%,90%{transform:scaleX(1)}100%{transform:scaleX(0)}}
@keyframes tbar{0%,100%{transform:scaleY(.22)}50%{transform:scaleY(1)}}
.dpul{transform-origin:0 0;animation:dpul 24s ease-out infinite}
@keyframes dpul{0%{transform:scale(.3);opacity:0}49.50%{transform:scale(.3);opacity:0}49.90%{transform:scale(.5);opacity:.9}54.00%{transform:scale(2.3);opacity:0}66.17%{transform:scale(.3);opacity:0}66.57%{transform:scale(.5);opacity:.9}70.67%{transform:scale(2.3);opacity:0}82.83%{transform:scale(.3);opacity:0}83.23%{transform:scale(.5);opacity:.9}87.33%{transform:scale(2.3);opacity:0}100%{transform:scale(2.3);opacity:0}}
.pb0{transform-origin:0 0;animation:pbfill 2.6s ease-in-out infinite;animation-delay:-0.0s}
.pb1{transform-origin:0 0;animation:pbfill 2.6s ease-in-out infinite;animation-delay:-0.8s}
.pb2{transform-origin:0 0;animation:pbfill 2.6s ease-in-out infinite;animation-delay:-1.5s}
.tb0{transform-origin:0 0;animation:tbar 1.9s ease-in-out infinite;animation-delay:-0.00s}
.tb1{transform-origin:0 0;animation:tbar 1.9s ease-in-out infinite;animation-delay:-0.28s}
.tb2{transform-origin:0 0;animation:tbar 1.9s ease-in-out infinite;animation-delay:-0.56s}
.tb3{transform-origin:0 0;animation:tbar 1.9s ease-in-out infinite;animation-delay:-0.84s}
.tb4{transform-origin:0 0;animation:tbar 1.9s ease-in-out infinite;animation-delay:-1.12s}
.tb5{transform-origin:0 0;animation:tbar 1.9s ease-in-out infinite;animation-delay:-1.40s}
</style>
</defs>
<rect x="0" y="0" width="1340" height="450" rx="0" fill="#F2EDE6"/>
<rect x="0" y="376" width="1340" height="74" rx="0" fill="#DFD4C5"/>
<rect x="0" y="376" width="1340" height="4" rx="0" fill="#CDBFAC"/>
<rect x="30" y="424" width="34" height="5" rx="2.5" fill="#CDBFAC"/>
<rect x="100" y="424" width="34" height="5" rx="2.5" fill="#CDBFAC"/>
<rect x="170" y="424" width="34" height="5" rx="2.5" fill="#CDBFAC"/>
<rect x="240" y="424" width="34" height="5" rx="2.5" fill="#CDBFAC"/>
<rect x="310" y="424" width="34" height="5" rx="2.5" fill="#CDBFAC"/>
<rect x="380" y="424" width="34" height="5" rx="2.5" fill="#CDBFAC"/>
<rect x="450" y="424" width="34" height="5" rx="2.5" fill="#CDBFAC"/>
<rect x="520" y="424" width="34" height="5" rx="2.5" fill="#CDBFAC"/>
<rect x="590" y="424" width="34" height="5" rx="2.5" fill="#CDBFAC"/>
<rect x="660" y="424" width="34" height="5" rx="2.5" fill="#CDBFAC"/>
<rect x="730" y="424" width="34" height="5" rx="2.5" fill="#CDBFAC"/>
<rect x="800" y="424" width="34" height="5" rx="2.5" fill="#CDBFAC"/>
<rect x="870" y="424" width="34" height="5" rx="2.5" fill="#CDBFAC"/>
<rect x="940" y="424" width="34" height="5" rx="2.5" fill="#CDBFAC"/>
<rect x="1010" y="424" width="34" height="5" rx="2.5" fill="#CDBFAC"/>
<rect x="1080" y="424" width="34" height="5" rx="2.5" fill="#CDBFAC"/>
<rect x="1150" y="424" width="34" height="5" rx="2.5" fill="#CDBFAC"/>
<rect x="1220" y="424" width="34" height="5" rx="2.5" fill="#CDBFAC"/>
<rect x="1290" y="424" width="34" height="5" rx="2.5" fill="#CDBFAC"/>
<rect x="371" y="54" width="62" height="82" rx="8" fill="#FAF5EC" stroke="#B5A695" stroke-width="2"/>
<rect x="371" y="54" width="62" height="14" rx="7" fill="#0077C8"/>
<path d="M371,136 H433 L412,166 H392 Z" fill="#C0BDB6"/>
<g transform="translate(402,102) scale(1.1)"><circle cx="0" cy="0" r="3.2" fill="#0077C8"/><ellipse rx="12" ry="4.6" fill="none" stroke="#0077C8" stroke-width="2" transform="rotate(0)"/><ellipse rx="12" ry="4.6" fill="none" stroke="#0077C8" stroke-width="2" transform="rotate(60)"/><ellipse rx="12" ry="4.6" fill="none" stroke="#0077C8" stroke-width="2" transform="rotate(-60)"/></g>
<rect x="395" y="166" width="14" height="34" rx="0" fill="#A8A49C"/>
<g class="dp0"><g transform="translate(402,172) scale(0.55)"><circle cx="0" cy="0" r="3.2" fill="#0077C8"/><ellipse rx="12" ry="4.6" fill="none" stroke="#0077C8" stroke-width="2" transform="rotate(0)"/><ellipse rx="12" ry="4.6" fill="none" stroke="#0077C8" stroke-width="2" transform="rotate(60)"/><ellipse rx="12" ry="4.6" fill="none" stroke="#0077C8" stroke-width="2" transform="rotate(-60)"/></g></g>
<rect x="441" y="54" width="62" height="82" rx="8" fill="#FAF5EC" stroke="#B5A695" stroke-width="2"/>
<rect x="441" y="54" width="62" height="14" rx="7" fill="#0077C8"/>
<path d="M441,136 H503 L482,166 H462 Z" fill="#C0BDB6"/>
<g transform="translate(472,102) scale(1.1)"><rect x="-12" y="-12" width="24" height="24" rx="4" fill="#0077C8"/><text x="0" y="5" font-family="ui-sans-serif,'Segoe UI',Roboto,Helvetica,Arial,sans-serif" font-size="12" font-weight="700" fill="#FFFFFF" letter-spacing="0" text-anchor="middle">TS</text></g>
<rect x="465" y="166" width="14" height="34" rx="0" fill="#A8A49C"/>
<g class="dp1"><g transform="translate(472,172) scale(0.55)"><rect x="-12" y="-12" width="24" height="24" rx="4" fill="#0077C8"/><text x="0" y="5" font-family="ui-sans-serif,'Segoe UI',Roboto,Helvetica,Arial,sans-serif" font-size="12" font-weight="700" fill="#FFFFFF" letter-spacing="0" text-anchor="middle">TS</text></g></g>
<rect x="526" y="54" width="62" height="82" rx="8" fill="#FAF5EC" stroke="#B5A695" stroke-width="2"/>
<rect x="526" y="54" width="62" height="14" rx="7" fill="#AAC832"/>
<path d="M526,136 H588 L567,166 H547 Z" fill="#C0BDB6"/>
<g transform="translate(557,102) scale(1.1)"><path d="M0,-12 L10.4,-6 L10.4,6 L0,12 L-10.4,6 L-10.4,-6 Z" fill="#7E9A1E"/><text x="0" y="4" font-family="ui-sans-serif,'Segoe UI',Roboto,Helvetica,Arial,sans-serif" font-size="11" font-weight="700" fill="#FFFFFF" letter-spacing="0" text-anchor="middle">N</text></g>
<rect x="550" y="166" width="14" height="34" rx="0" fill="#A8A49C"/>
<g class="dp2"><g transform="translate(557,172) scale(0.55)"><path d="M0,-12 L10.4,-6 L10.4,6 L0,12 L-10.4,6 L-10.4,-6 Z" fill="#7E9A1E"/><text x="0" y="4" font-family="ui-sans-serif,'Segoe UI',Roboto,Helvetica,Arial,sans-serif" font-size="11" font-weight="700" fill="#FFFFFF" letter-spacing="0" text-anchor="middle">N</text></g></g>
<rect x="596" y="54" width="62" height="82" rx="8" fill="#FAF5EC" stroke="#B5A695" stroke-width="2"/>
<rect x="596" y="54" width="62" height="14" rx="7" fill="#F2D24B"/>
<path d="M596,136 H658 L637,166 H617 Z" fill="#C0BDB6"/>
<g transform="translate(627,102) scale(1.1)"><rect x="-10" y="-11" width="10" height="15" rx="4" fill="#0077C8"/><rect x="0" y="-4" width="10" height="15" rx="4" fill="#F2D24B"/><circle cx="-6" cy="-7" r="1.6" fill="#FFFFFF"/><circle cx="6" cy="7" r="1.6" fill="#5E5349"/></g>
<rect x="620" y="166" width="14" height="34" rx="0" fill="#A8A49C"/>
<g class="dp3"><g transform="translate(627,172) scale(0.55)"><rect x="-10" y="-11" width="10" height="15" rx="4" fill="#0077C8"/><rect x="0" y="-4" width="10" height="15" rx="4" fill="#F2D24B"/><circle cx="-6" cy="-7" r="1.6" fill="#FFFFFF"/><circle cx="6" cy="7" r="1.6" fill="#5E5349"/></g></g>
<rect x="681" y="54" width="62" height="82" rx="8" fill="#FAF5EC" stroke="#B5A695" stroke-width="2"/>
<rect x="681" y="54" width="62" height="14" rx="7" fill="#AAC832"/>
<path d="M681,136 H743 L722,166 H702 Z" fill="#C0BDB6"/>
<g transform="translate(712,102) scale(1.1)"><path d="M0,-13 C7.5,-6 7.5,4.5 0,12.5 C-7.5,4.5 -7.5,-6 0,-13 Z" fill="#AAC832"/><path d="M0,-11 V11" stroke="#7E9A1E" stroke-width="1.6" fill="none"/></g>
<rect x="705" y="166" width="14" height="34" rx="0" fill="#A8A49C"/>
<g class="dp4"><g transform="translate(712,172) scale(0.55)"><path d="M0,-13 C7.5,-6 7.5,4.5 0,12.5 C-7.5,4.5 -7.5,-6 0,-13 Z" fill="#AAC832"/><path d="M0,-11 V11" stroke="#7E9A1E" stroke-width="1.6" fill="none"/></g></g>
<rect x="751" y="54" width="62" height="82" rx="8" fill="#FAF5EC" stroke="#B5A695" stroke-width="2"/>
<rect x="751" y="54" width="62" height="14" rx="7" fill="#D41F26"/>
<path d="M751,136 H813 L792,166 H772 Z" fill="#C0BDB6"/>
<g transform="translate(782,102) scale(1.1)"><ellipse cy="-8" rx="11" ry="4.2" fill="#0077C8"/><rect x="-11" y="-8" width="22" height="16" rx="0" fill="#0077C8"/><ellipse cy="8" rx="11" ry="4.2" fill="#005A96"/><ellipse cy="0" rx="11" ry="4.2" fill="none" stroke="#005A96" stroke-width="1.4"/></g>
<rect x="775" y="166" width="14" height="34" rx="0" fill="#A8A49C"/>
<g class="dp5"><g transform="translate(782,172) scale(0.55)"><ellipse cy="-8" rx="11" ry="4.2" fill="#0077C8"/><rect x="-11" y="-8" width="22" height="16" rx="0" fill="#0077C8"/><ellipse cy="8" rx="11" ry="4.2" fill="#005A96"/><ellipse cy="0" rx="11" ry="4.2" fill="none" stroke="#005A96" stroke-width="1.4"/></g></g>
<rect x="370" y="200" width="140" height="80" rx="10" fill="#DAD8D4" stroke="#B5A695" stroke-width="2"/>
<rect x="370" y="268" width="140" height="12" rx="6" fill="#C0BDB6"/>
<rect x="370" y="200" width="140" height="14" rx="6" fill="#0077C8"/>
<rect x="382" y="224" width="48" height="38" rx="4" fill="#C0BDB6"/>
<rect x="386" y="228" width="40" height="30" rx="3" fill="#0077C8"/>
<rect x="390" y="234" width="22" height="3" rx="1.5" fill="#FAF5EC"/>
<rect x="390" y="242" width="30" height="3" rx="1.5" fill="#FAF5EC"/>
<rect x="390" y="250" width="16" height="3" rx="1.5" fill="#FAF5EC"/>
<circle cx="444" cy="232" r="6" fill="#AAC832" class="lamp"/>
<circle cx="444" cy="250" r="6" fill="#F2D24B" class="lamp2"/>
<rect x="440" y="200" width="56" height="140" rx="6" fill="#C0BDB6" stroke="#B5A695" stroke-width="2"/>
<rect x="440" y="200" width="56" height="14" rx="6" fill="#0077C8"/>
<rect x="448" y="226" width="40" height="44" rx="4" fill="#5E5349"/>
<g class="press"><rect x="453" y="230" width="30" height="14" rx="3" fill="#0077C8"/></g>
<text x="440.0" y="367" font-family="ui-sans-serif,'Segoe UI',Roboto,Helvetica,Arial,sans-serif" font-size="17" font-weight="700" fill="#5E5349" letter-spacing="2" text-anchor="middle">FRONTEND</text>
<rect x="525" y="200" width="140" height="80" rx="10" fill="#DAD8D4" stroke="#B5A695" stroke-width="2"/>
<rect x="525" y="268" width="140" height="12" rx="6" fill="#C0BDB6"/>
<rect x="525" y="200" width="140" height="14" rx="6" fill="#AAC832"/>
<rect x="537" y="224" width="48" height="38" rx="4" fill="#C0BDB6"/>
<rect x="541" y="228" width="40" height="30" rx="3" fill="#0077C8"/>
<rect x="545" y="234" width="22" height="3" rx="1.5" fill="#FAF5EC"/>
<rect x="545" y="242" width="30" height="3" rx="1.5" fill="#FAF5EC"/>
<rect x="545" y="250" width="16" height="3" rx="1.5" fill="#FAF5EC"/>
<circle cx="599" cy="232" r="6" fill="#AAC832" class="lamp"/>
<circle cx="599" cy="250" r="6" fill="#F2D24B" class="lamp2"/>
<rect x="595" y="200" width="56" height="140" rx="6" fill="#C0BDB6" stroke="#B5A695" stroke-width="2"/>
<rect x="595" y="200" width="56" height="14" rx="6" fill="#AAC832"/>
<rect x="603" y="226" width="40" height="44" rx="4" fill="#5E5349"/>
<g class="press"><rect x="608" y="230" width="30" height="14" rx="3" fill="#AAC832"/></g>
<text x="595.0" y="367" font-family="ui-sans-serif,'Segoe UI',Roboto,Helvetica,Arial,sans-serif" font-size="17" font-weight="700" fill="#5E5349" letter-spacing="2" text-anchor="middle">BACKEND</text>
<rect x="680" y="200" width="140" height="80" rx="10" fill="#DAD8D4" stroke="#B5A695" stroke-width="2"/>
<rect x="680" y="268" width="140" height="12" rx="6" fill="#C0BDB6"/>
<rect x="680" y="200" width="140" height="14" rx="6" fill="#F88379"/>
<rect x="692" y="224" width="48" height="38" rx="4" fill="#C0BDB6"/>
<rect x="696" y="228" width="40" height="30" rx="3" fill="#0077C8"/>
<rect x="700" y="234" width="22" height="3" rx="1.5" fill="#FAF5EC"/>
<rect x="700" y="242" width="30" height="3" rx="1.5" fill="#FAF5EC"/>
<rect x="700" y="250" width="16" height="3" rx="1.5" fill="#FAF5EC"/>
<circle cx="754" cy="232" r="6" fill="#AAC832" class="lamp"/>
<circle cx="754" cy="250" r="6" fill="#F2D24B" class="lamp2"/>
<rect x="750" y="200" width="56" height="140" rx="6" fill="#C0BDB6" stroke="#B5A695" stroke-width="2"/>
<rect x="750" y="200" width="56" height="14" rx="6" fill="#F88379"/>
<rect x="758" y="226" width="40" height="44" rx="4" fill="#5E5349"/>
<g class="press"><rect x="763" y="230" width="30" height="14" rx="3" fill="#F88379"/></g>
<text x="750.0" y="367" font-family="ui-sans-serif,'Segoe UI',Roboto,Helvetica,Arial,sans-serif" font-size="17" font-weight="700" fill="#5E5349" letter-spacing="2" text-anchor="middle">DATABASE</text>
<rect x="835" y="200" width="140" height="80" rx="10" fill="#DAD8D4" stroke="#B5A695" stroke-width="2"/>
<rect x="835" y="268" width="140" height="12" rx="6" fill="#C0BDB6"/>
<rect x="835" y="200" width="140" height="14" rx="6" fill="#F2D24B"/>
<rect x="847" y="224" width="48" height="38" rx="4" fill="#C0BDB6"/>
<rect x="851" y="228" width="40" height="30" rx="3" fill="#0077C8"/>
<rect x="855" y="234" width="22" height="3" rx="1.5" fill="#FAF5EC"/>
<rect x="855" y="242" width="30" height="3" rx="1.5" fill="#FAF5EC"/>
<rect x="855" y="250" width="16" height="3" rx="1.5" fill="#FAF5EC"/>
<circle cx="909" cy="232" r="6" fill="#AAC832" class="lamp"/>
<circle cx="909" cy="250" r="6" fill="#F2D24B" class="lamp2"/>
<rect x="905" y="200" width="56" height="140" rx="6" fill="#C0BDB6" stroke="#B5A695" stroke-width="2"/>
<rect x="905" y="200" width="56" height="14" rx="6" fill="#F2D24B"/>
<rect x="913" y="226" width="40" height="44" rx="4" fill="#5E5349"/>
<g class="press"><rect x="918" y="230" width="30" height="14" rx="3" fill="#F2D24B"/></g>
<text x="905.0" y="367" font-family="ui-sans-serif,'Segoe UI',Roboto,Helvetica,Arial,sans-serif" font-size="17" font-weight="700" fill="#5E5349" letter-spacing="2" text-anchor="middle">ASSEMBLE</text>
<rect x="300" y="316" width="740" height="22" rx="4" fill="#C0BDB6"/>
<circle cx="314" cy="327" r="9" fill="#DAD8D4"/>
<g transform="translate(314,327)"><g class="roll"><rect x="-1.4" y="-7" width="2.8" height="14" rx="1.4" fill="#A8A49C"/></g></g>
<circle cx="358" cy="327" r="9" fill="#DAD8D4"/>
<g transform="translate(358,327)"><g class="roll"><rect x="-1.4" y="-7" width="2.8" height="14" rx="1.4" fill="#A8A49C"/></g></g>
<circle cx="402" cy="327" r="9" fill="#DAD8D4"/>
<g transform="translate(402,327)"><g class="roll"><rect x="-1.4" y="-7" width="2.8" height="14" rx="1.4" fill="#A8A49C"/></g></g>
<circle cx="446" cy="327" r="9" fill="#DAD8D4"/>
<g transform="translate(446,327)"><g class="roll"><rect x="-1.4" y="-7" width="2.8" height="14" rx="1.4" fill="#A8A49C"/></g></g>
<circle cx="490" cy="327" r="9" fill="#DAD8D4"/>
<g transform="translate(490,327)"><g class="roll"><rect x="-1.4" y="-7" width="2.8" height="14" rx="1.4" fill="#A8A49C"/></g></g>
<circle cx="534" cy="327" r="9" fill="#DAD8D4"/>
<g transform="translate(534,327)"><g class="roll"><rect x="-1.4" y="-7" width="2.8" height="14" rx="1.4" fill="#A8A49C"/></g></g>
<circle cx="578" cy="327" r="9" fill="#DAD8D4"/>
<g transform="translate(578,327)"><g class="roll"><rect x="-1.4" y="-7" width="2.8" height="14" rx="1.4" fill="#A8A49C"/></g></g>
<circle cx="622" cy="327" r="9" fill="#DAD8D4"/>
<g transform="translate(622,327)"><g class="roll"><rect x="-1.4" y="-7" width="2.8" height="14" rx="1.4" fill="#A8A49C"/></g></g>
<circle cx="666" cy="327" r="9" fill="#DAD8D4"/>
<g transform="translate(666,327)"><g class="roll"><rect x="-1.4" y="-7" width="2.8" height="14" rx="1.4" fill="#A8A49C"/></g></g>
<circle cx="710" cy="327" r="9" fill="#DAD8D4"/>
<g transform="translate(710,327)"><g class="roll"><rect x="-1.4" y="-7" width="2.8" height="14" rx="1.4" fill="#A8A49C"/></g></g>
<circle cx="754" cy="327" r="9" fill="#DAD8D4"/>
<g transform="translate(754,327)"><g class="roll"><rect x="-1.4" y="-7" width="2.8" height="14" rx="1.4" fill="#A8A49C"/></g></g>
<circle cx="798" cy="327" r="9" fill="#DAD8D4"/>
<g transform="translate(798,327)"><g class="roll"><rect x="-1.4" y="-7" width="2.8" height="14" rx="1.4" fill="#A8A49C"/></g></g>
<circle cx="842" cy="327" r="9" fill="#DAD8D4"/>
<g transform="translate(842,327)"><g class="roll"><rect x="-1.4" y="-7" width="2.8" height="14" rx="1.4" fill="#A8A49C"/></g></g>
<circle cx="886" cy="327" r="9" fill="#DAD8D4"/>
<g transform="translate(886,327)"><g class="roll"><rect x="-1.4" y="-7" width="2.8" height="14" rx="1.4" fill="#A8A49C"/></g></g>
<circle cx="930" cy="327" r="9" fill="#DAD8D4"/>
<g transform="translate(930,327)"><g class="roll"><rect x="-1.4" y="-7" width="2.8" height="14" rx="1.4" fill="#A8A49C"/></g></g>
<circle cx="974" cy="327" r="9" fill="#DAD8D4"/>
<g transform="translate(974,327)"><g class="roll"><rect x="-1.4" y="-7" width="2.8" height="14" rx="1.4" fill="#A8A49C"/></g></g>
<circle cx="1018" cy="327" r="9" fill="#DAD8D4"/>
<g transform="translate(1018,327)"><g class="roll"><rect x="-1.4" y="-7" width="2.8" height="14" rx="1.4" fill="#A8A49C"/></g></g>
<rect x="300" y="306" width="740" height="11" rx="3" fill="#6E645B"/>
<g clip-path="url(#bc)"><g class="beltmove">
<rect x="274" y="306" width="13" height="11" rx="0" fill="#8A8078"/>
<rect x="300" y="306" width="13" height="11" rx="0" fill="#8A8078"/>
<rect x="326" y="306" width="13" height="11" rx="0" fill="#8A8078"/>
<rect x="352" y="306" width="13" height="11" rx="0" fill="#8A8078"/>
<rect x="378" y="306" width="13" height="11" rx="0" fill="#8A8078"/>
<rect x="404" y="306" width="13" height="11" rx="0" fill="#8A8078"/>
<rect x="430" y="306" width="13" height="11" rx="0" fill="#8A8078"/>
<rect x="456" y="306" width="13" height="11" rx="0" fill="#8A8078"/>
<rect x="482" y="306" width="13" height="11" rx="0" fill="#8A8078"/>
<rect x="508" y="306" width="13" height="11" rx="0" fill="#8A8078"/>
<rect x="534" y="306" width="13" height="11" rx="0" fill="#8A8078"/>
<rect x="560" y="306" width="13" height="11" rx="0" fill="#8A8078"/>
<rect x="586" y="306" width="13" height="11" rx="0" fill="#8A8078"/>
<rect x="612" y="306" width="13" height="11" rx="0" fill="#8A8078"/>
<rect x="638" y="306" width="13" height="11" rx="0" fill="#8A8078"/>
<rect x="664" y="306" width="13" height="11" rx="0" fill="#8A8078"/>
<rect x="690" y="306" width="13" height="11" rx="0" fill="#8A8078"/>
<rect x="716" y="306" width="13" height="11" rx="0" fill="#8A8078"/>
<rect x="742" y="306" width="13" height="11" rx="0" fill="#8A8078"/>
<rect x="768" y="306" width="13" height="11" rx="0" fill="#8A8078"/>
<rect x="794" y="306" width="13" height="11" rx="0" fill="#8A8078"/>
<rect x="820" y="306" width="13" height="11" rx="0" fill="#8A8078"/>
<rect x="846" y="306" width="13" height="11" rx="0" fill="#8A8078"/>
<rect x="872" y="306" width="13" height="11" rx="0" fill="#8A8078"/>
<rect x="898" y="306" width="13" height="11" rx="0" fill="#8A8078"/>
<rect x="924" y="306" width="13" height="11" rx="0" fill="#8A8078"/>
<rect x="950" y="306" width="13" height="11" rx="0" fill="#8A8078"/>
<rect x="976" y="306" width="13" height="11" rx="0" fill="#8A8078"/>
<rect x="1002" y="306" width="13" height="11" rx="0" fill="#8A8078"/>
<rect x="1028" y="306" width="13" height="11" rx="0" fill="#8A8078"/>
<rect x="1054" y="306" width="13" height="11" rx="0" fill="#8A8078"/>
</g></g>
<rect x="296" y="338" width="14" height="38" rx="3" fill="#A8A49C"/>
<rect x="1030" y="338" width="14" height="38" rx="3" fill="#A8A49C"/>
<g class="it0"><g transform="scale(0.78)"><rect x="-19" y="-17" width="38" height="34" rx="4" fill="#D4A373" stroke="#BC8A5F" stroke-width="2"/><path d="M-19,-4 H19 M-19,7 H19" stroke="#BC8A5F" stroke-width="1.8" fill="none"/><rect x="-11" y="-14" width="22" height="8" rx="2" fill="#FAF5EC"/></g></g>
<g class="it1"><g transform="scale(0.9)"><rect x="-25" y="-26" width="50" height="17" rx="3" fill="#0077C8" stroke="#B5A695" stroke-width="1.6"/><rect x="-19" y="-21" width="24" height="3" rx="1.5" fill="#FFFFFF"/><rect x="-19" y="-16" width="14" height="3" rx="1.5" fill="#FFFFFF"/></g></g>
<g class="it2"><g transform="scale(0.9)"><rect x="-25" y="-26" width="50" height="17" rx="3" fill="#0077C8" stroke="#B5A695" stroke-width="1.6"/><rect x="-19" y="-21" width="24" height="3" rx="1.5" fill="#FFFFFF"/><rect x="-19" y="-16" width="14" height="3" rx="1.5" fill="#FFFFFF"/><rect x="-25" y="-7" width="50" height="17" rx="3" fill="#AAC832" stroke="#B5A695" stroke-width="1.6"/><rect x="-19" y="-2" width="24" height="3" rx="1.5" fill="#FFFFFF"/><rect x="-19" y="3" width="14" height="3" rx="1.5" fill="#FFFFFF"/></g></g>
<g class="it3"><g transform="scale(0.9)"><rect x="-25" y="-26" width="50" height="17" rx="3" fill="#0077C8" stroke="#B5A695" stroke-width="1.6"/><rect x="-19" y="-21" width="24" height="3" rx="1.5" fill="#FFFFFF"/><rect x="-19" y="-16" width="14" height="3" rx="1.5" fill="#FFFFFF"/><rect x="-25" y="-7" width="50" height="17" rx="3" fill="#AAC832" stroke="#B5A695" stroke-width="1.6"/><rect x="-19" y="-2" width="24" height="3" rx="1.5" fill="#FFFFFF"/><rect x="-19" y="3" width="14" height="3" rx="1.5" fill="#FFFFFF"/><rect x="-25" y="12" width="50" height="17" rx="3" fill="#F88379" stroke="#B5A695" stroke-width="1.6"/><rect x="-19" y="17" width="24" height="3" rx="1.5" fill="#FFFFFF"/><rect x="-19" y="22" width="14" height="3" rx="1.5" fill="#FFFFFF"/></g></g>
<g class="it4"><g transform="scale(0.86)"><rect x="-32" y="-26" width="64" height="52" rx="5" fill="#FAF5EC" stroke="#B5A695" stroke-width="2"/><rect x="-32" y="-26" width="64" height="13" rx="5" fill="#C0BDB6"/><circle cx="-24" cy="-19" r="3" fill="#D41F26"/><circle cx="-16" cy="-19" r="3" fill="#F2D24B"/><circle cx="-8" cy="-19" r="3" fill="#AAC832"/><rect x="-26" y="-8" width="20" height="20" rx="3" fill="#0077C8"/><rect x="-2" y="-8" width="28" height="5" rx="2" fill="#AAC832"/><rect x="-2" y="0" width="28" height="5" rx="2" fill="#F88379"/><rect x="-2" y="8" width="18" height="5" rx="2" fill="#A8A49C"/></g></g>
<rect x="1150" y="120" width="162" height="256" rx="10" fill="#DAD8D4" stroke="#B5A695" stroke-width="2"/>
<rect x="1150" y="120" width="162" height="18" rx="8" fill="#5E5349"/>
<text x="1231" y="158" font-family="ui-sans-serif,'Segoe UI',Roboto,Helvetica,Arial,sans-serif" font-size="16" font-weight="700" fill="#5E5349" letter-spacing="1.6" text-anchor="middle">LIVE SERVER</text>
<rect x="1162" y="172" width="138" height="34" rx="4" fill="#C0BDB6"/>
<rect x="1170" y="181" width="90" height="8" rx="4" fill="#A8A49C"/>
<g transform="translate(1170,181)"><rect class="pb0" width="90" height="8" rx="4" fill="#AAC832"/></g>
<circle cx="1272" cy="189" r="6" fill="#AAC832" class="lamp"/>
<circle cx="1288" cy="189" r="6" fill="#0077C8" class="lamp2"/>
<rect x="1162" y="216" width="138" height="34" rx="4" fill="#C0BDB6"/>
<rect x="1170" y="225" width="90" height="8" rx="4" fill="#A8A49C"/>
<g transform="translate(1170,225)"><rect class="pb1" width="90" height="8" rx="4" fill="#0077C8"/></g>
<circle cx="1272" cy="233" r="6" fill="#AAC832" class="lamp2"/>
<circle cx="1288" cy="233" r="6" fill="#0077C8" class="lamp"/>
<rect x="1162" y="260" width="138" height="34" rx="4" fill="#C0BDB6"/>
<rect x="1170" y="269" width="90" height="8" rx="4" fill="#A8A49C"/>
<g transform="translate(1170,269)"><rect class="pb2" width="90" height="8" rx="4" fill="#AAC832"/></g>
<circle cx="1272" cy="277" r="6" fill="#AAC832" class="lamp"/>
<circle cx="1288" cy="277" r="6" fill="#0077C8" class="lamp2"/>
<g transform="translate(1168,344)"><rect class="tb0" x="0" y="-36" width="15" height="36" rx="2" fill="#AAC832"/></g>
<g transform="translate(1191,344)"><rect class="tb1" x="0" y="-36" width="15" height="36" rx="2" fill="#0077C8"/></g>
<g transform="translate(1214,344)"><rect class="tb2" x="0" y="-36" width="15" height="36" rx="2" fill="#AAC832"/></g>
<g transform="translate(1237,344)"><rect class="tb3" x="0" y="-36" width="15" height="36" rx="2" fill="#0077C8"/></g>
<g transform="translate(1260,344)"><rect class="tb4" x="0" y="-36" width="15" height="36" rx="2" fill="#AAC832"/></g>
<g transform="translate(1283,344)"><rect class="tb5" x="0" y="-36" width="15" height="36" rx="2" fill="#0077C8"/></g>
<text x="1231" y="367" font-family="ui-sans-serif,'Segoe UI',Roboto,Helvetica,Arial,sans-serif" font-size="17" font-weight="700" fill="#5E5349" letter-spacing="2" text-anchor="middle">DEPLOY</text>
<g transform="translate(1213,289)"><circle class="dpul" r="26" fill="none" stroke="#AAC832" stroke-width="4"/></g>
<g transform="translate(1231,104)"><g class="sig" style="animation-delay:0s"><path d="M-26,0 A26,26 0 0,1 26,0" fill="none" stroke="#AAC832" stroke-width="4" stroke-linecap="round"/></g></g>
<g transform="translate(1231,104)"><g class="sig" style="animation-delay:-.87s"><path d="M-26,0 A26,26 0 0,1 26,0" fill="none" stroke="#AAC832" stroke-width="4" stroke-linecap="round"/></g></g>
<g transform="translate(1231,104)"><g class="sig" style="animation-delay:-1.74s"><path d="M-26,0 A26,26 0 0,1 26,0" fill="none" stroke="#AAC832" stroke-width="4" stroke-linecap="round"/></g></g>
<g class="tin"><circle cx="46" cy="0" r="19" fill="#5E5349"/><g transform="translate(46,0)"><g class="whl"><rect x="-1.7" y="-13" width="3.4" height="26" rx="1.7" fill="#A8A49C"/><rect x="-13" y="-1.7" width="26" height="3.4" rx="1.7" fill="#A8A49C"/></g></g><circle cx="46" cy="0" r="6" fill="#DAD8D4"/><circle cx="170" cy="0" r="19" fill="#5E5349"/><g transform="translate(170,0)"><g class="whl"><rect x="-1.7" y="-13" width="3.4" height="26" rx="1.7" fill="#A8A49C"/><rect x="-13" y="-1.7" width="26" height="3.4" rx="1.7" fill="#A8A49C"/></g></g><circle cx="170" cy="0" r="6" fill="#DAD8D4"/><rect x="6" y="-30" width="206" height="12" rx="3" fill="#A8A49C"/><rect x="6" y="-86" width="140" height="58" rx="6" fill="#0077C8" stroke="#B5A695" stroke-width="2"/><rect x="150" y="-104" width="60" height="76" rx="8" fill="#005A96" stroke="#B5A695" stroke-width="2"/><rect x="158" y="-95" width="40" height="28" rx="4" fill="#FAF5EC"/><rect x="200" y="-50" width="12" height="8" rx="2" fill="#F2D24B"/><g class="cr0"><g transform="translate(44,-104)"><g transform="scale(0.72)"><rect x="-19" y="-17" width="38" height="34" rx="4" fill="#D4A373" stroke="#BC8A5F" stroke-width="2"/><path d="M-19,-4 H19 M-19,7 H19" stroke="#BC8A5F" stroke-width="1.8" fill="none"/><rect x="-11" y="-14" width="22" height="8" rx="2" fill="#FAF5EC"/></g></g></g><g class="cr1"><g transform="translate(86,-104)"><g transform="scale(0.72)"><rect x="-19" y="-17" width="38" height="34" rx="4" fill="#D4A373" stroke="#BC8A5F" stroke-width="2"/><path d="M-19,-4 H19 M-19,7 H19" stroke="#BC8A5F" stroke-width="1.8" fill="none"/><rect x="-11" y="-14" width="22" height="8" rx="2" fill="#FAF5EC"/></g></g></g><g class="cr2"><g transform="translate(128,-104)"><g transform="scale(0.72)"><rect x="-19" y="-17" width="38" height="34" rx="4" fill="#D4A373" stroke="#BC8A5F" stroke-width="2"/><path d="M-19,-4 H19 M-19,7 H19" stroke="#BC8A5F" stroke-width="1.8" fill="none"/><rect x="-11" y="-14" width="22" height="8" rx="2" fill="#FAF5EC"/></g></g></g></g>
<rect x="229" y="170" width="42" height="206" rx="6" fill="#F2D24B" stroke="#B5A695" stroke-width="2"/><rect x="229" y="196" width="42" height="7" rx="0" fill="#5E5349"/><rect x="218" y="360" width="64" height="16" rx="4" fill="#A8A49C"/><rect x="229" y="170" width="42" height="11" rx="5" fill="#5E5349"/><g transform="translate(250,176)"><g class="au1"><rect x="-12" y="0" width="24" height="140" rx="12" fill="#F2D24B" stroke="#B5A695" stroke-width="2"/><rect x="-12" y="58.8" width="24" height="9" rx="0" fill="#5E5349"/><g transform="translate(0,140)"><g class="ap1"><rect x="-16" y="-7" width="32" height="14" rx="3" fill="#5E5349"/><g class="ac1"><rect x="-16" y="4" width="6" height="17" rx="2" fill="#5E5349"/><rect x="10" y="4" width="6" height="17" rx="2" fill="#5E5349"/></g><g class="aw1"><g transform="translate(0,14)"><g transform="scale(0.66)"><rect x="-19" y="-17" width="38" height="34" rx="4" fill="#D4A373" stroke="#BC8A5F" stroke-width="2"/><path d="M-19,-4 H19 M-19,7 H19" stroke="#BC8A5F" stroke-width="1.8" fill="none"/><rect x="-11" y="-14" width="22" height="8" rx="2" fill="#FAF5EC"/></g></g></g></g></g></g></g><circle cx="250" cy="176" r="13" fill="#5E5349"/>
<rect x="1093" y="170" width="42" height="206" rx="6" fill="#F2D24B" stroke="#B5A695" stroke-width="2"/><rect x="1093" y="196" width="42" height="7" rx="0" fill="#5E5349"/><rect x="1082" y="360" width="64" height="16" rx="4" fill="#A8A49C"/><rect x="1093" y="170" width="42" height="11" rx="5" fill="#5E5349"/><g transform="translate(1114,176)"><g class="au2"><rect x="-12" y="0" width="24" height="140" rx="12" fill="#F2D24B" stroke="#B5A695" stroke-width="2"/><rect x="-12" y="58.8" width="24" height="9" rx="0" fill="#5E5349"/><g transform="translate(0,140)"><g class="ap2"><rect x="-16" y="-7" width="32" height="14" rx="3" fill="#5E5349"/><g class="ac2"><rect x="-16" y="4" width="6" height="17" rx="2" fill="#5E5349"/><rect x="10" y="4" width="6" height="17" rx="2" fill="#5E5349"/></g><g class="aw2"><g transform="translate(0,14)"><g transform="scale(0.6)"><rect x="-32" y="-26" width="64" height="52" rx="5" fill="#FAF5EC" stroke="#B5A695" stroke-width="2"/><rect x="-32" y="-26" width="64" height="13" rx="5" fill="#C0BDB6"/><circle cx="-24" cy="-19" r="3" fill="#D41F26"/><circle cx="-16" cy="-19" r="3" fill="#F2D24B"/><circle cx="-8" cy="-19" r="3" fill="#AAC832"/><rect x="-26" y="-8" width="20" height="20" rx="3" fill="#0077C8"/><rect x="-2" y="-8" width="28" height="5" rx="2" fill="#AAC832"/><rect x="-2" y="0" width="28" height="5" rx="2" fill="#F88379"/><rect x="-2" y="8" width="18" height="5" rx="2" fill="#A8A49C"/></g></g></g></g></g></g></g><circle cx="1114" cy="176" r="13" fill="#5E5349"/>
</svg>